<mxfile host="app.diagrams.net" modified="2023-11-06T16:37:57.941Z" agent="Mozilla/5.0 (Windows NT 10.0; Win64; x64) AppleWebKit/537.36 (KHTML, like Gecko) Chrome/118.0.0.0 Safari/537.36" version="22.0.8" etag="k8RfVGmAgoyfuKqdBUaI" type="github">
  <diagram name="Halaman-1" id="N_3M0ScOYuUy9Qlue4R9">
    <mxGraphModel>
      <root>
        <mxCell id="0" />
        <mxCell id="1" parent="0" />
      </root>
    </mxGraphModel>
  </diagram>
</mxfile>
